<svg id="visual" viewBox="0 0 960 540" width="960" height="540" xmlns="http://www.w3.org/2000/svg" xmlns:xlink="http://www.w3.org/1999/xlink" version="1.1"><rect x="0" y="0" width="960" height="540" fill="#001220"></rect><path d="M0 384L22.8 379.7C45.7 375.3 91.3 366.7 137 356.3C182.7 346 228.3 334 274 327C319.7 320 365.3 318 411.2 330.5C457 343 503 370 548.8 381.3C594.7 392.7 640.3 388.3 686 378.8C731.7 369.3 777.3 354.7 823 351.5C868.7 348.3 914.3 356.7 937.2 360.8L960 365L960 541L937.2 541C914.3 541 868.7 541 823 541C777.3 541 731.7 541 686 541C640.3 541 594.7 541 548.8 541C503 541 457 541 411.2 541C365.3 541 319.7 541 274 541C228.3 541 182.7 541 137 541C91.3 541 45.7 541 22.8 541L0 541Z" fill="#31d498"></path><path d="M0 419L22.8 420.7C45.7 422.3 91.3 425.7 137 421.3C182.7 417 228.3 405 274 397C319.7 389 365.3 385 411.2 389.3C457 393.7 503 406.3 548.8 411.2C594.7 416 640.3 413 686 402.8C731.7 392.7 777.3 375.3 823 370C868.7 364.7 914.3 371.3 937.2 374.7L960 378L960 541L937.2 541C914.3 541 868.7 541 823 541C777.3 541 731.7 541 686 541C640.3 541 594.7 541 548.8 541C503 541 457 541 411.2 541C365.3 541 319.7 541 274 541C228.3 541 182.7 541 137 541C91.3 541 45.7 541 22.8 541L0 541Z" fill="#25c48f"></path><path d="M0 438L22.8 441C45.7 444 91.3 450 137 450.5C182.7 451 228.3 446 274 445.8C319.7 445.7 365.3 450.3 411.2 451.7C457 453 503 451 548.8 443.8C594.7 436.7 640.3 424.3 686 424C731.7 423.7 777.3 435.3 823 436.3C868.7 437.3 914.3 427.7 937.2 422.8L960 418L960 541L937.2 541C914.3 541 868.7 541 823 541C777.3 541 731.7 541 686 541C640.3 541 594.7 541 548.8 541C503 541 457 541 411.2 541C365.3 541 319.7 541 274 541C228.3 541 182.7 541 137 541C91.3 541 45.7 541 22.8 541L0 541Z" fill="#18b486"></path><path d="M0 469L22.8 465.5C45.7 462 91.3 455 137 452.3C182.7 449.7 228.3 451.3 274 456.7C319.7 462 365.3 471 411.2 471.8C457 472.7 503 465.3 548.8 463.5C594.7 461.7 640.3 465.3 686 466.7C731.7 468 777.3 467 823 464.5C868.7 462 914.3 458 937.2 456L960 454L960 541L937.2 541C914.3 541 868.7 541 823 541C777.3 541 731.7 541 686 541C640.3 541 594.7 541 548.8 541C503 541 457 541 411.2 541C365.3 541 319.7 541 274 541C228.3 541 182.7 541 137 541C91.3 541 45.7 541 22.8 541L0 541Z" fill="#0ba47d"></path><path d="M0 479L22.8 481C45.7 483 91.3 487 137 485.8C182.7 484.7 228.3 478.3 274 481.7C319.7 485 365.3 498 411.2 500.2C457 502.3 503 493.7 548.8 493.7C594.7 493.7 640.3 502.3 686 501.8C731.7 501.3 777.3 491.7 823 486.5C868.7 481.3 914.3 480.7 937.2 480.3L960 480L960 541L937.2 541C914.3 541 868.7 541 823 541C777.3 541 731.7 541 686 541C640.3 541 594.7 541 548.8 541C503 541 457 541 411.2 541C365.3 541 319.7 541 274 541C228.3 541 182.7 541 137 541C91.3 541 45.7 541 22.8 541L0 541Z" fill="#009473"></path></svg>